<?xml version="1.0" encoding="UTF-8" standalone="no"?>
<!-- Created with Inkscape (http://www.inkscape.org/) -->

<svg
   width="124.51006mm"
   height="124.51008mm"
   viewBox="0 0 124.51006 124.51008"
   version="1.1"
   id="svg5"
   xmlns:inkscape="http://www.inkscape.org/namespaces/inkscape"
   xmlns:sodipodi="http://sodipodi.sourceforge.net/DTD/sodipodi-0.dtd"
   xmlns="http://www.w3.org/2000/svg"
   xmlns:svg="http://www.w3.org/2000/svg">
  <sodipodi:namedview
     id="namedview7"
     pagecolor="#505050"
     bordercolor="#eeeeee"
     borderopacity="1"
     inkscape:showpageshadow="0"
     inkscape:pageopacity="0"
     inkscape:pagecheckerboard="0"
     inkscape:deskcolor="#505050"
     inkscape:document-units="mm"
     showgrid="false" />
  <defs
     id="defs2" />
  <g
     inkscape:label="Layer 1 copy"
     inkscape:groupmode="layer"
     id="g2927"
     style="display:none"
     transform="translate(-18.282052,-36.616858)">
    <circle
       style="fill:#1b1d1e;fill-opacity:1;stroke-width:1.685;stroke-linejoin:bevel"
       id="circle2917"
       cx="80.537086"
       cy="98.871895"
       r="62.255035" />
    <path
       style="fill:#cbc6bf;fill-opacity:1;stroke-width:1.685;stroke-linejoin:bevel"
       id="path2919"
       d="m 35.283103,95.271867 c -0.103974,0.311959 -0.270731,0.55586 -0.256326,1.273394 0.01682,0.8381 0.766879,1.320763 1.653116,1.372042 1.715051,0.09923 3.552378,-0.864444 5.030489,-1.42513 3.602834,-1.868316 5.793663,-2.916987 9.298929,-5.123434 1.89061,-1.190078 3.728694,-2.462589 5.559428,-3.742865 4.282091,-2.99457 6.967834,-5.029179 10.975371,-8.430961 1.864998,-1.583097 3.659024,-3.247946 5.488536,-4.871918 4.416848,-4.234498 8.806558,-8.525799 12.551603,-13.381604 0.616264,-0.79905 2.571646,-3.394776 2.924487,-4.737714 0.291244,-1.443009 -1.141842,-1.664116 -2.098567,-1.421198 -1.239006,0.34913 -3.44089,2.85538 -4.050662,3.552605 -1.748346,1.999107 -3.163337,3.925025 -4.46182,6.263592 -2.33262,4.334656 -4.031667,9.696889 -4.758256,13.533676 -0.5247,2.83265 -0.845044,6.803083 -0.950872,9.693476 -0.01101,0.300664 -0.09662,10.400908 -0.0969,10.433282 -0.16677,3.85342 -0.131371,6.73773 -0.94928,10.5413 -0.734259,3.41457 -2.139469,7.37418 -3.814898,10.4546 -3.528487,5.7078 -6.190298,8.76494 -11.264344,12.2168 -2.876312,1.9362 -5.547794,3.2127 -8.867634,4.16431 -2.153817,0.61738 -4.797105,1.07951 -7.062478,0.60027 -1.540679,-0.39252 -2.870608,-1.35052 -3.360436,-2.74644 -0.599586,-1.80815 -0.004,-3.40952 0.787916,-5.06115 1.307184,-2.72625 3.218852,-5.03904 5.30126,-7.20633 1.49307,-1.55394 3.131098,-2.96178 4.696645,-4.44267 1.987738,-1.60877 3.931799,-3.27306 5.963211,-4.82632 2.042012,-1.56136 4.137512,-3.05289 6.25243,-4.51398 6.501132,-4.4913 13.27722,-8.604323 20.20561,-12.401078 2.386999,-1.308076 4.816752,-2.536571 7.225127,-3.804856 6.391161,-3.164713 12.901202,-6.141765 19.708222,-8.30865 2.25546,-0.717984 5.72667,-1.687396 8.22137,-1.825204 1.16489,0.0053 2.80738,0.02246 3.18174,1.198094 0.28234,0.984456 -1.07231,3.262405 -1.29813,3.642857 -1.35015,2.274713 -3.26478,4.588013 -4.91575,6.601833 -1.14866,1.401115 -2.32926,2.775728 -3.4939,4.163592 -3.25117,4.050392 -6.83262,7.865682 -9.454543,12.382612 -1.059674,1.82557 -2.207902,3.93545 -2.026845,6.16751 0.56168,4.20642 4.993688,6.89048 7.661398,9.20541 0.72185,0.63205 1.40758,1.3042 2.11137,1.9563 0.73133,0.69775 0.96944,-0.5149 0.74233,-0.71258 -2.79805,-2.55198 -2.27304,-2.06278 -4.59868,-4.09016 -0.74289,-0.63997 -1.52128,-1.24397 -2.20656,-1.94529 -1.127238,-1.26188 -2.380456,-2.70828 -2.611973,-4.28115 -0.270742,-2.09804 0.698114,-4.07431 1.652024,-5.83651 2.469289,-4.56161 5.993789,-8.41157 9.287399,-12.369995 1.22937,-1.40643 5.33916,-6.063004 6.62516,-7.695954 0.77923,-0.989457 1.55047,-1.992037 2.20654,-3.067111 0.85928,-1.408051 2.14948,-3.276867 1.17092,-5.068083 -0.96356,-1.336892 -2.83394,-1.358792 -4.20524,-1.219834 -2.59602,0.287198 -5.89558,1.370582 -8.26506,2.202447 -1.94495,0.682827 -3.87877,1.401186 -5.7834,2.189499 -4.474,1.851753 -9.533166,4.337965 -13.869338,6.402983 -2.418265,1.258969 -4.858713,2.476211 -7.25479,3.776906 -5.20573,2.8259 -8.460113,4.79144 -13.443188,7.960842 -2.287431,1.45488 -4.575897,2.91012 -6.812126,4.44254 -4.976731,3.4104 -7.60372,5.55494 -12.369369,9.2448 -3.91945,3.50455 -8.220972,6.89039 -10.579978,11.74366 -0.987849,2.03235 -1.686849,3.87711 -0.766257,6.06837 0.842177,1.74721 2.578122,2.79249 4.287043,3.10638 2.409402,0.4083 5.114401,-0.15728 7.381997,-0.85906 1.537864,-0.47595 3.06052,-1.02835 4.507484,-1.73392 7.141217,-3.661 12.995883,-9.63659 15.994607,-15.13019 1.567138,-2.90446 3.178358,-7.45 3.88411,-10.64532 0.873628,-3.95539 0.79961,-6.62813 0.952294,-10.631469 0.03658,-1.809334 0.07602,-3.618616 0.109728,-5.428009 0.06221,-3.338957 0.0336,-6.338136 0.356557,-9.661199 0.157928,-1.625013 0.359368,-3.248361 0.655487,-4.853954 0.776732,-4.211544 1.274461,-5.121319 2.697353,-9.186857 0.675452,-1.345625 1.274725,-2.732272 2.026362,-4.036875 1.209362,-2.099071 2.797979,-4.225356 4.446256,-6.012587 0.66211,-0.717926 1.39754,-1.351816 2.110948,-2.018791 0.867465,-0.809004 2.428704,-1.421592 1.502091,0.471889 -1.155488,2.234665 -3.218735,4.964496 -4.75258,6.796085 -3.440975,4.10892 -5.33644,5.774922 -9.253913,9.634185 -1.831483,1.610148 -3.626443,3.262815 -5.494449,4.830442 -3.38546,2.84107 -7.309456,5.858706 -10.967334,8.355862 -3.395231,2.317848 -6.857854,4.461383 -10.520955,6.32777 -1.43044,0.728826 -2.918446,1.338685 -4.377668,2.008026 -2.074352,0.652973 -2.468603,0.954934 -4.271619,1.098828 -0.148029,0.0118 -0.272788,0.01796 -0.443349,-0.04366 -0.238738,-0.139433 -0.182523,-0.303262 -0.112895,-0.524461 0.266808,-0.442871 -0.612812,-1.394322 -1.25259,-0.754544 z"
       inkscape:label="path366"
       sodipodi:nodetypes="ssscssscsccsccscsccsccsscssscsccsscscccccccscssccsscssscsccsccscssscssccscssscsccss" />
    <path
       style="fill:#cbc6bf;fill-opacity:1;stroke-width:1.685;stroke-linejoin:bevel"
       id="path2921"
       d="m 90.436606,90.637139 c -0.806204,0.535303 -2.036913,1.375302 -2.197785,2.41812 -0.236715,1.299724 1.421174,1.584247 2.292635,1.34634 0.729041,-0.202933 1.701419,-0.760439 2.250866,-1.2881 0.239644,-0.230145 0.481666,-0.489744 0.58887,-0.804233 0.100939,-0.296114 0.183571,-0.629571 0.0052,-0.938519 -0.277299,-0.477811 -1.210299,-0.226867 -1.31353,0.308546 v 0 c 0.284509,0.01686 0.548564,-0.08457 0.0315,0.521645 -0.5794,0.679302 -1.471562,1.000514 -2.330841,1.073467 -0.208079,0.03124 -0.294647,-0.02717 -0.228879,-0.187248 0.3083,-0.591656 0.935146,-0.939559 1.505908,-1.218763 0.435316,-0.213524 -0.168622,-1.444784 -0.603938,-1.23126 z"
       sodipodi:nodetypes="sccsscssscccss" />
    <path
       style="fill:#cbc6bf;fill-opacity:1;stroke-width:1.685;stroke-linejoin:bevel"
       id="path2923"
       d="m 121.08651,81.246254 c 0.71959,-0.505005 1.35911,-1.122825 1.70607,-1.94755 0.0765,-0.181962 0.16977,-0.370576 0.16772,-0.567971 0.0418,-1.049677 -0.74587,-1.164308 -1.36467,-0.936376 -0.30314,0.12651 -0.49337,0.308917 -0.70053,0.510273 -0.52117,0.506587 -1.23454,1.706041 -1.32414,2.440855 -0.0928,0.744938 0.38567,1.384938 0.99625,1.631148 1.15315,0.434282 3.1165,-0.576191 4.14141,-1.006879 0.33456,-0.135472 -0.0486,-1.081752 -0.38317,-0.94628 v 0 c -1.1139,0.432652 -1.39061,0.616974 -2.52611,0.791453 -0.20999,0.03227 -0.42866,-0.02724 -0.63722,0.01326 1.0489,-4.125101 -1.29572,0.02359 -0.0756,0.01807 z"
       sodipodi:nodetypes="ccccscccsssccc" />
    <path
       style="fill:#cbc6bf;fill-opacity:1;stroke-width:1.685;stroke-linejoin:bevel"
       id="path2925"
       d="m 121.5767,76.567484 c 1.36229,-1.830311 3.16398,-3.291406 4.84125,-4.81222 0.10543,-0.08457 -0.13377,-0.382739 -0.23919,-0.29817 v 0 c -1.94429,1.377381 -3.89002,2.74343 -5.7388,4.248362 -0.30477,0.401899 0.83197,1.263928 1.13674,0.862028 z" />
  </g>
  <g
     inkscape:label="Layer 1 copy copy"
     inkscape:groupmode="layer"
     id="g3124"
     style="display:inline"
     transform="translate(-18.282052,-36.616858)">
    <circle
       style="fill:#cbc6bf;fill-opacity:1;stroke-width:1.685;stroke-linejoin:bevel"
       id="circle3114"
       cx="80.537086"
       cy="98.871895"
       r="62.255035" />
    <path
       style="fill:#1b1d1e;fill-opacity:1;stroke-width:1.685;stroke-linejoin:bevel"
       id="path3116"
       d="m 35.283103,95.271867 c -0.103974,0.311959 -0.270731,0.55586 -0.256326,1.273394 0.01682,0.8381 0.766879,1.320763 1.653116,1.372042 1.715051,0.09923 3.552378,-0.864444 5.030489,-1.42513 3.602834,-1.868316 5.793663,-2.916987 9.298929,-5.123434 1.89061,-1.190078 3.728694,-2.462589 5.559428,-3.742865 4.282091,-2.99457 6.967834,-5.029179 10.975371,-8.430961 1.864998,-1.583097 3.659024,-3.247946 5.488536,-4.871918 4.416848,-4.234498 8.806558,-8.525799 12.551603,-13.381604 0.616264,-0.79905 2.571646,-3.394776 2.924487,-4.737714 0.291244,-1.443009 -1.141842,-1.664116 -2.098567,-1.421198 -1.239006,0.34913 -3.44089,2.85538 -4.050662,3.552605 -1.748346,1.999107 -3.163337,3.925025 -4.46182,6.263592 -2.33262,4.334656 -4.031667,9.696889 -4.758256,13.533676 -0.5247,2.83265 -0.845044,6.803083 -0.950872,9.693476 -0.01101,0.300664 -0.09662,10.400908 -0.0969,10.433282 -0.16677,3.85342 -0.131371,6.73773 -0.94928,10.5413 -0.734259,3.41457 -2.139469,7.37418 -3.814898,10.4546 -3.528487,5.7078 -6.190298,8.76494 -11.264344,12.2168 -2.876312,1.9362 -5.547794,3.2127 -8.867634,4.16431 -2.153817,0.61738 -4.797105,1.07951 -7.062478,0.60027 -1.540679,-0.39252 -2.870608,-1.35052 -3.360436,-2.74644 -0.599586,-1.80815 -0.004,-3.40952 0.787916,-5.06115 1.307184,-2.72625 3.218852,-5.03904 5.30126,-7.20633 1.49307,-1.55394 3.131098,-2.96178 4.696645,-4.44267 1.987738,-1.60877 3.931799,-3.27306 5.963211,-4.82632 2.042012,-1.56136 4.137512,-3.05289 6.25243,-4.51398 6.501132,-4.4913 13.27722,-8.604323 20.20561,-12.401078 2.386999,-1.308076 4.816752,-2.536571 7.225127,-3.804856 6.391161,-3.164713 12.901202,-6.141765 19.708222,-8.30865 2.25546,-0.717984 5.72667,-1.687396 8.22137,-1.825204 1.16489,0.0053 2.80738,0.02246 3.18174,1.198094 0.28234,0.984456 -1.07231,3.262405 -1.29813,3.642857 -1.35015,2.274713 -3.26478,4.588013 -4.91575,6.601833 -1.14866,1.401115 -2.32926,2.775728 -3.4939,4.163592 -3.25117,4.050392 -6.83262,7.865682 -9.454543,12.382612 -1.059674,1.82557 -2.207902,3.93545 -2.026845,6.16751 0.56168,4.20642 4.993688,6.89048 7.661398,9.20541 0.72185,0.63205 1.40758,1.3042 2.11137,1.9563 0.73133,0.69775 0.96944,-0.5149 0.74233,-0.71258 -2.79805,-2.55198 -2.27304,-2.06278 -4.59868,-4.09016 -0.74289,-0.63997 -1.52128,-1.24397 -2.20656,-1.94529 -1.127238,-1.26188 -2.380456,-2.70828 -2.611973,-4.28115 -0.270742,-2.09804 0.698114,-4.07431 1.652024,-5.83651 2.469289,-4.56161 5.993789,-8.41157 9.287399,-12.369995 1.22937,-1.40643 5.33916,-6.063004 6.62516,-7.695954 0.77923,-0.989457 1.55047,-1.992037 2.20654,-3.067111 0.85928,-1.408051 2.14948,-3.276867 1.17092,-5.068083 -0.96356,-1.336892 -2.83394,-1.358792 -4.20524,-1.219834 -2.59602,0.287198 -5.89558,1.370582 -8.26506,2.202447 -1.94495,0.682827 -3.87877,1.401186 -5.7834,2.189499 -4.474,1.851753 -9.533166,4.337965 -13.869338,6.402983 -2.418265,1.258969 -4.858713,2.476211 -7.25479,3.776906 -5.20573,2.8259 -8.460113,4.79144 -13.443188,7.960842 -2.287431,1.45488 -4.575897,2.91012 -6.812126,4.44254 -4.976731,3.4104 -7.60372,5.55494 -12.369369,9.2448 -3.91945,3.50455 -8.220972,6.89039 -10.579978,11.74366 -0.987849,2.03235 -1.686849,3.87711 -0.766257,6.06837 0.842177,1.74721 2.578122,2.79249 4.287043,3.10638 2.409402,0.4083 5.114401,-0.15728 7.381997,-0.85906 1.537864,-0.47595 3.06052,-1.02835 4.507484,-1.73392 7.141217,-3.661 12.995883,-9.63659 15.994607,-15.13019 1.567138,-2.90446 3.178358,-7.45 3.88411,-10.64532 0.873628,-3.95539 0.79961,-6.62813 0.952294,-10.631469 0.03658,-1.809334 0.07602,-3.618616 0.109728,-5.428009 0.06221,-3.338957 0.0336,-6.338136 0.356557,-9.661199 0.157928,-1.625013 0.359368,-3.248361 0.655487,-4.853954 0.776732,-4.211544 1.274461,-5.121319 2.697353,-9.186857 0.675452,-1.345625 1.274725,-2.732272 2.026362,-4.036875 1.209362,-2.099071 2.797979,-4.225356 4.446256,-6.012587 0.66211,-0.717926 1.39754,-1.351816 2.110948,-2.018791 0.867465,-0.809004 2.428704,-1.421592 1.502091,0.471889 -1.155488,2.234665 -3.218735,4.964496 -4.75258,6.796085 -3.440975,4.10892 -5.33644,5.774922 -9.253913,9.634185 -1.831483,1.610148 -3.626443,3.262815 -5.494449,4.830442 -3.38546,2.84107 -7.309456,5.858706 -10.967334,8.355862 -3.395231,2.317848 -6.857854,4.461383 -10.520955,6.32777 -1.43044,0.728826 -2.918446,1.338685 -4.377668,2.008026 -2.074352,0.652973 -2.468603,0.954934 -4.271619,1.098828 -0.148029,0.0118 -0.272788,0.01796 -0.443349,-0.04366 -0.238738,-0.139433 -0.182523,-0.303262 -0.112895,-0.524461 0.266808,-0.442871 -0.612812,-1.394322 -1.25259,-0.754544 z"
       inkscape:label="path366"
       sodipodi:nodetypes="ssscssscsccsccscsccsccsscssscsccsscscccccccscssccsscssscsccsccscssscssccscssscsccss" />
    <path
       style="fill:#1b1d1e;fill-opacity:1;stroke-width:1.685;stroke-linejoin:bevel"
       id="path3118"
       d="m 90.436606,90.637139 c -0.806204,0.535303 -2.036913,1.375302 -2.197785,2.41812 -0.236715,1.299724 1.421174,1.584247 2.292635,1.34634 0.729041,-0.202933 1.701419,-0.760439 2.250866,-1.2881 0.239644,-0.230145 0.481666,-0.489744 0.58887,-0.804233 0.100939,-0.296114 0.183571,-0.629571 0.0052,-0.938519 -0.277299,-0.477811 -1.210299,-0.226867 -1.31353,0.308546 v 0 c 0.284509,0.01686 0.548564,-0.08457 0.0315,0.521645 -0.5794,0.679302 -1.471562,1.000514 -2.330841,1.073467 -0.208079,0.03124 -0.294647,-0.02717 -0.228879,-0.187248 0.3083,-0.591656 0.935146,-0.939559 1.505908,-1.218763 0.435316,-0.213524 -0.168622,-1.444784 -0.603938,-1.23126 z"
       sodipodi:nodetypes="sccsscssscccss" />
    <path
       style="fill:#1b1d1e;fill-opacity:1;stroke-width:1.685;stroke-linejoin:bevel"
       id="path3120"
       d="m 121.08651,81.246254 c 0.71959,-0.505005 1.35911,-1.122825 1.70607,-1.94755 0.0765,-0.181962 0.16977,-0.370576 0.16772,-0.567971 0.0418,-1.049677 -0.74587,-1.164308 -1.36467,-0.936376 -0.30314,0.12651 -0.49337,0.308917 -0.70053,0.510273 -0.52117,0.506587 -1.23454,1.706041 -1.32414,2.440855 -0.0928,0.744938 0.38567,1.384938 0.99625,1.631148 1.15315,0.434282 3.1165,-0.576191 4.14141,-1.006879 0.33456,-0.135472 -0.0486,-1.081752 -0.38317,-0.94628 v 0 c -1.1139,0.432652 -1.39061,0.616974 -2.52611,0.791453 -0.20999,0.03227 -0.42866,-0.02724 -0.63722,0.01326 1.0489,-4.125101 -1.29572,0.02359 -0.0756,0.01807 z"
       sodipodi:nodetypes="ccccscccsssccc" />
    <path
       style="fill:#1b1d1e;fill-opacity:1;stroke-width:1.685;stroke-linejoin:bevel"
       id="path3122"
       d="m 121.5767,76.567484 c 1.36229,-1.830311 3.16398,-3.291406 4.84125,-4.81222 0.10543,-0.08457 -0.13377,-0.382739 -0.23919,-0.29817 v 0 c -1.94429,1.377381 -3.89002,2.74343 -5.7388,4.248362 -0.30477,0.401899 0.83197,1.263928 1.13674,0.862028 z" />
  </g>
</svg>
